<svg width="115" height="115" viewBox="0 0 115 115" fill="none" xmlns="http://www.w3.org/2000/svg">
<circle cx="57.5" cy="57.5" r="55" stroke="#1B479C" stroke-width="5"/>
<path d="M79.7144 62.1501V66.1088C79.7144 66.1088 80.3394 68.609 78.8809 69.8592C77.4224 71.1093 75.5472 70.6926 75.5472 70.6926C75.5472 70.6926 76.5889 73.8179 74.7137 75.068C72.8386 76.3181 71.1718 75.4846 71.1718 75.4846C71.1718 75.4846 71.3803 77.1514 70.3384 78.1932C69.0883 79.2349 66.7965 78.6099 66.7965 78.6099C66.7965 78.6099 66.7965 80.6935 65.5464 81.1101C64.5047 81.7351 62.6295 81.5267 61.171 80.6935C59.7125 79.6518 46.7948 75.4846 46.7948 75.4846L44.503 72.9844L40.1276 70.0676C40.1276 70.0676 35.9607 67.5674 33.8771 66.7339C31.7935 65.9004 21.5845 60.4834 21.5845 60.4834L31.7937 46.1072L43.0447 49.4408L55.5457 45.2739C56.7958 44.8572 58.2544 44.8572 59.5045 45.4823L67.8386 49.441L79.7144 62.1501Z" fill="#0A53DF" fill-opacity="0.6"/>
<path d="M86.5902 41.5234C82.2148 44.2321 77.6311 47.3573 77.006 47.774C75.7559 48.8157 74.2974 50.0658 73.4641 50.0658C72.8391 50.2742 72.6306 50.2742 70.9639 49.6491C69.2972 49.0241 66.3801 48.399 65.9635 47.9824C65.3384 47.5657 63.6717 46.3156 62.2132 46.5239C60.7546 46.7323 60.5464 47.3573 59.713 47.5655C58.8795 47.7738 56.1711 48.6072 55.546 48.8156C54.9209 49.0241 53.4624 50.2742 53.4624 52.1493C53.4624 52.1493 52.629 55.0662 52.629 55.6912L52.0039 58.3999C52.0039 58.3999 56.5877 62.3586 59.713 54.0245C59.713 54.0245 60.9631 53.6079 61.3797 53.3994C61.7963 53.191 63.6715 53.6079 64.9216 54.0245C66.1717 54.4411 69.297 56.1081 71.1721 57.5664C73.0473 59.2331 79.2978 64.2335 79.7144 66.1087C79.7144 66.1087 81.798 64.2335 82.4231 62.9834C82.8397 62.15 85.5483 60.0666 88.4652 58.3997L86.5902 41.5234Z" fill="#0A53DF"/>
<path d="M52.0039 58.3998C52.0039 58.3998 53.0456 59.0249 55.1292 57.9832C55.1292 57.9832 55.9626 56.108 55.9626 55.483C55.9626 54.8579 55.3376 54.4413 54.7125 54.4413C54.0875 54.4413 53.4624 54.8579 53.254 55.2748C52.8374 55.6914 52.0039 57.5665 52.0039 58.3998Z" fill="#E8EAE9"/>
<path d="M91.9661 61.3857L82.4778 44.7303L74.8743 49.0619L84.3626 65.7173L91.9661 61.3857Z" fill="#E8EAE9"/>
<path d="M94.1089 36.1373L76.7292 46.0383L89.621 68.6679L107.001 58.767L94.1089 36.1373Z" fill="#1B479C"/>
<path d="M92.2155 63.4005C93.7114 63.4005 94.9241 62.1878 94.9241 60.6918C94.9241 59.1959 93.7114 57.9832 92.2155 57.9832C90.7195 57.9832 89.5068 59.1959 89.5068 60.6918C89.5068 62.1878 90.7195 63.4005 92.2155 63.4005Z" fill="white"/>
<path d="M33.1908 68.4786L42.3333 48.6033L33.2475 44.4239L24.1051 64.2992L33.1908 68.4786Z" fill="#E8EAE9"/>
<path d="M7.02906 63.1427L27.6614 72.6334L40.0254 45.7544L19.3931 36.2638L7.02906 63.1427Z" fill="#1B479C"/>
</svg>
